<svg xmlns="http://www.w3.org/2000/svg" xmlns:xlink="http://www.w3.org/1999/xlink" viewBox="0,0,256,256" width="64px" height="64px"><g fill="none" fill-rule="nonzero" stroke="none" stroke-width="1" stroke-linecap="butt" stroke-linejoin="miter" stroke-miterlimit="10" stroke-dasharray="" stroke-dashoffset="0" font-family="none" font-weight="none" font-size="none" text-anchor="none" style="mix-blend-mode: normal"><g transform="scale(4,4)"><path d="M12.568,5c0.486,0 0.983,0.075 1.465,0.22l38.753,12.176c2.52,0.792 4.213,3.099 4.213,5.74v27.017c0,2.665 -2.159,4.834 -4.813,4.834c-0.472,0 -0.946,-0.071 -1.408,-0.211c-15.168,-4.593 -38.468,-12.008 -42.778,-13.382v-31.795c0,-1.531 0.688,-2.868 1.888,-3.668l0.03,-0.02l0.029,-0.022c0.758,-0.59 1.64,-0.889 2.621,-0.889" fill="#339af0"></path><path d="M12.486,10.066c0.486,-0.002 0.983,0.072 1.466,0.215l38.793,12.049c2.523,0.784 4.223,3.085 4.232,5.726l0.089,22.017c0.009,2.665 -2.143,4.841 -4.797,4.85c-0.472,0.002 -0.946,-0.068 -1.408,-0.206c-15.185,-4.544 -38.509,-11.883 -42.823,-13.242l-0.105,-26.795c-0.005,-1.531 0.679,-2.87 1.876,-3.674l0.03,-0.02l0.029,-0.023c0.756,-0.592 1.637,-0.894 2.618,-0.897" fill="#339af0"></path><path d="M12.486,10.066c0.486,-0.002 0.983,0.072 1.466,0.215l38.793,12.049c2.523,0.784 4.223,3.085 4.232,5.726l0.089,17.017c0.009,2.665 -2.143,4.841 -4.797,4.85c-0.472,0.002 -0.946,-0.068 -1.408,-0.206c-15.185,-4.544 -38.509,-11.883 -42.823,-13.242l-0.105,-21.795c-0.005,-1.531 0.679,-2.87 1.876,-3.674l0.03,-0.02l0.029,-0.023c0.756,-0.592 1.637,-0.894 2.618,-0.897" fill="#339af0"></path><path d="M49,48c0,-0.552 -0.448,-1 -1,-1h-2c-0.552,0 -1,0.448 -1,1c0,0.552 0.448,1 1,1h2c0.552,0 1,-0.448 1,-1zM49,43c0,-0.552 -0.448,-1 -1,-1h-2c-0.552,0 -1,0.448 -1,1c0,0.552 0.448,1 1,1h2c0.552,0 1,-0.448 1,-1zM49,38c0,-0.552 -0.448,-1 -1,-1h-2c-0.552,0 -1,0.448 -1,1c0,0.552 0.448,1 1,1h2c0.552,0 1,-0.448 1,-1zM49,33c0,-0.552 -0.448,-1 -1,-1h-2c-0.552,0 -1,0.448 -1,1c0,0.552 0.448,1 1,1h2c0.552,0 1,-0.448 1,-1zM49,28c0,-0.552 -0.448,-1 -1,-1h-2c-0.552,0 -1,0.448 -1,1c0,0.552 0.448,1 1,1h2c0.552,0 1,-0.448 1,-1zM49,23c0,-0.552 -0.448,-1 -1,-1h-2c-0.552,0 -1,0.448 -1,1c0,0.552 0.448,1 1,1h2c0.552,0 1,-0.448 1,-1z" fill="#fbfbfb"></path><path d="M8.5,35c1.379,0 2.5,1.121 2.5,2.5v8c0,1.379 -1.121,2.5 -2.5,2.5c-1.379,0 -2.5,-1.121 -2.5,-2.5v-8c0,-1.379 1.121,-2.5 2.5,-2.5M18.5,32c1.379,0 2.5,1.121 2.5,2.5v15c0,1.379 -1.121,2.5 -2.5,2.5c-1.379,0 -2.5,-1.121 -2.5,-2.5v-15c0,-1.379 1.121,-2.5 2.5,-2.5M28.5,28c1.379,0 2.5,1.121 2.5,2.5v23c0,1.379 -1.121,2.5 -2.5,2.5c-1.379,0 -2.5,-1.121 -2.5,-2.5v-23c0,-1.379 1.121,-2.5 2.5,-2.5M38.5,24c1.379,0 2.5,1.121 2.5,2.5v30c0,1.379 -1.121,2.5 -2.5,2.5c-1.379,0 -2.5,-1.121 -2.5,-2.5v-30c0,-1.379 1.121,-2.5 2.5,-2.5" fill="#fcc419"></path><path d="M8.5,36c0.827,0 1.5,0.673 1.5,1.5v8c0,0.827 -0.673,1.5 -1.5,1.5c-0.827,0 -1.5,-0.673 -1.5,-1.5v-8c0,-0.827 0.673,-1.5 1.5,-1.5M8.5,34c-1.933,0 -3.5,1.567 -3.5,3.5v8c0,1.933 1.567,3.5 3.5,3.5c1.933,0 3.5,-1.567 3.5,-3.5v-8c0,-1.933 -1.567,-3.5 -3.5,-3.5zM18.5,33c0.827,0 1.5,0.673 1.5,1.5v15c0,0.827 -0.673,1.5 -1.5,1.5c-0.827,0 -1.5,-0.673 -1.5,-1.5v-15c0,-0.827 0.673,-1.5 1.5,-1.5M18.5,31c-1.933,0 -3.5,1.567 -3.5,3.5v15c0,1.933 1.567,3.5 3.5,3.5c1.933,0 3.5,-1.567 3.5,-3.5v-15c0,-1.933 -1.567,-3.5 -3.5,-3.5zM28.5,29c0.827,0 1.5,0.673 1.5,1.5v23c0,0.827 -0.673,1.5 -1.5,1.5c-0.827,0 -1.5,-0.673 -1.5,-1.5v-23c0,-0.827 0.673,-1.5 1.5,-1.5M28.5,27c-1.933,0 -3.5,1.567 -3.5,3.5v23c0,1.933 1.567,3.5 3.5,3.5c1.933,0 3.5,-1.567 3.5,-3.5v-23c0,-1.933 -1.567,-3.5 -3.5,-3.5zM38.5,25c0.827,0 1.5,0.673 1.5,1.5v30.065c0,0.827 -0.673,1.5 -1.5,1.5c-0.827,0 -1.5,-0.673 -1.5,-1.5v-30.065c0,-0.827 0.673,-1.5 1.5,-1.5M38.5,23c-1.933,0 -3.5,1.567 -3.5,3.5v30.065c0,1.933 1.567,3.5 3.5,3.5c1.933,0 3.5,-1.567 3.5,-3.5v-30.065c0,-1.933 -1.567,-3.5 -3.5,-3.5z" fill="#fbfbfb"></path><path d="M53.086,16.455l-38.753,-12.177c-0.575,-0.173 -1.171,-0.266 -1.765,-0.266c-1.128,0 -2.253,0.335 -3.235,1.099c-1.5,1.001 -2.333,2.667 -2.333,4.501v21.401c0,0.552 0.448,1 1,1c0.552,0 1,-0.448 1,-1v-21.401c0,-1.191 0.526,-2.225 1.443,-2.836l0.061,-0.041l0.058,-0.045c0.578,-0.45 1.254,-0.678 2.007,-0.678c0.389,0 0.789,0.061 1.166,0.174l38.753,12.177c2.09,0.657 3.512,2.595 3.512,4.786v27.017c0,2.114 -1.711,3.834 -3.813,3.834c-0.374,0 -0.75,-0.057 -1.118,-0.168c-1.82,-0.551 -3.761,-1.145 -5.771,-1.762c-0.643,-0.198 -1.298,0.281 -1.298,0.954v0c0,0.439 0.29,0.828 0.71,0.957c2.009,0.618 3.953,1.212 5.779,1.765c0.57,0.172 1.14,0.254 1.698,0.254c3.104,0 5.813,-2.519 5.813,-5.834v-27.017c0,-3.065 -1.989,-5.775 -4.914,-6.694z" fill="#fbfbfb"></path></g></g></svg>